{"title":"Chappaquiddick 2018 Movies 720p BluRay x264 5.1 +Sample ☻rDX☻","magnet":"magnet:?xt=urn:btih:2cb78f7df8ab43143032ed672865580f6894f528&dn=Chappaquiddick+2018+Movies+720p+BluRay+x264+5.1+%2BSample+%E2%98%BBrDX%E2%98%BB&tr=udp%3A%2F%2Ftracker.leechers-paradise.org%3A6969&tr=udp%3A%2F%2Fzer0day.ch%3A1337&tr=udp%3A%2F%2Fopen.demonii.com%3A1337&tr=udp%3A%2F%2Ftracker.coppersurfer.tk%3A6969&tr=udp%3A%2F%2Fexodus.desync.com%3A6969","uploader":"basicssom","categoryP":"video","categoryS":"hd___movies","size":"1112083884","seeders":"1","leechers":"29","description":"Chappaquiddick 2018 Movies 720p BluRay x264 5.1 with Sample &#x263B;rDX&#x263B;\r\n\r\nSCREEN SHOTS &amp; POSTER:\r\n   <a href=\"\nhttp://iphonehosting.eu/2018/7/plan/index.html\" rel=\"nofollow\" target=\"_NEW\">\nhttp://iphonehosting.eu/2018/7/plan/index.html</a> <a href=\"\nhttp://iphonehosting.eu/2018/7/plan/1.html\" rel=\"nofollow\" target=\"_NEW\">\nhttp://iphonehosting.eu/2018/7/plan/1.html</a> <a href=\"\nhttp://iphonehosting.eu/2018/7/plan/2.html\" rel=\"nofollow\" target=\"_NEW\">\nhttp://iphonehosting.eu/2018/7/plan/2.html</a>   <a href=\"\nhttp://iphonehosting.eu/2018/7/plan/3.html\" rel=\"nofollow\" target=\"_NEW\">\nhttp://iphonehosting.eu/2018/7/plan/3.html</a>   <a href=\"\nhttp://iphonehosting.eu/2018/7/plan/4.html\" rel=\"nofollow\" target=\"_NEW\">\nhttp://iphonehosting.eu/2018/7/plan/4.html</a>   <a href=\"\nhttp://iphonehosting.eu/2018/7/plan/5.html\" rel=\"nofollow\" target=\"_NEW\">\nhttp://iphonehosting.eu/2018/7/plan/5.html</a>   <a href=\"\nhttp://iphonehosting.eu/2018/7/plan/6.html\" rel=\"nofollow\" target=\"_NEW\">\nhttp://iphonehosting.eu/2018/7/plan/6.html</a>   <a href=\"\nhttp://iphonehosting.eu/2018/7/plan/7.html\" rel=\"nofollow\" target=\"_NEW\">\nhttp://iphonehosting.eu/2018/7/plan/7.html</a>   <a href=\"\nhttp://iphonehosting.eu/2018/7/plan/8.html\" rel=\"nofollow\" target=\"_NEW\">\nhttp://iphonehosting.eu/2018/7/plan/8.html</a>   <a href=\"\nhttp://iphonehosting.eu/2018/7/plan/9.html\" rel=\"nofollow\" target=\"_NEW\">\nhttp://iphonehosting.eu/2018/7/plan/9.html</a>   <a href=\"\nhttp://iphonehosting.eu/2018/7/plan/10.html\" rel=\"nofollow\" target=\"_NEW\">\nhttp://iphonehosting.eu/2018/7/plan/10.html</a>\r\n\r\nFile size                                : 1.02 GiB\r\nDuration                                 : 1 h 46 min\r\nOverall bit rate                         : 1 375 kb/s\r\nMovie name                               : Chappaquiddick 2018 Movies 720p BluRay x264 5.1 &#x263B;rDX&#x263B;\r\n\r\nVideo\r\nID                                       : 2\r\nFormat                                   : AVC\r\nFormat/Info                              : Advanced Video Codec\r\nFormat profile                           : High@L4\r\nFormat settings, CABAC                   : Yes\r\nFormat settings, ReFrames                : 4 frames\r\nCodec ID                                 : V_MPEG4/ISO/AVC\r\nDuration                                 : 1 h 46 min\r\nBit rate                                 : 926 kb/s\r\nWidth                                    : 1 280 pixels\r\nHeight                                   : 536 pixels\r\nDisplay aspect ratio                     : 2.40:1\r\nFrame rate mode                          : Constant\r\nFrame rate                               : 23.976 (24000/1001) FPS\r\nColor space                              : YUV\r\nChroma subsampling                       : 4:2:0\r\nBit depth                                : 8 bits\r\nScan type                                : Progressive\r\nBits/(Pixel*Frame)                       : 0.056\r\nStream size                              : 687 MiB (65%)\r\nTitle                                    : &#x263B;rDX&#x263B;\r\nWriting library                          : x264\r\n\r\nAudio\r\nID                                       : 1\r\nFormat                                   : AC-3\r\nFormat/Info                              : Audio Coding 3\r\nMode extension                           : CM (complete main)\r\nFormat settings, Endianness              : Big\r\nCodec ID                                 : A_AC3\r\nDuration                                 : 1 h 46 min\r\nBit rate mode                            : Constant\r\nBit rate                                 : 448 kb/s\r\nChannel(s)                               : 6 channels\r\nChannel positions                        : Front: L C R, Side: L R, LFE\r\nSampling rate                            : 48.0 kHz\r\nFrame rate                               : 31.250 FPS (1536 spf)\r\nBit depth                                : 16 bits\r\nCompression mode                         : Lossy\r\nDelay relative to video                  : -21 ms\r\nStream size                              : 342 MiB (33%)\r\nTitle                                    : &#x263B;rDX&#x263B;\r\nDefault                                  : Yes\r\nForced                                   : No","last_updated":"2018-07-01T12:10:23.242Z","parsed":{"xt":"urn:btih:2cb78f7df8ab43143032ed672865580f6894f528","dn":"Chappaquiddick 2018 Movies 720p BluRay x264 5.1  Sample ☻rDX☻","tr":["udp://exodus.desync.com:6969","udp://open.demonii.com:1337","udp://tracker.coppersurfer.tk:6969","udp://tracker.leechers-paradise.org:6969","udp://zer0day.ch:1337"],"infoHash":"2cb78f7df8ab43143032ed672865580f6894f528","infoHashBuffer":{"type":"Buffer","data":[44,183,143,125,248,171,67,20,48,50,237,103,40,101,88,15,104,148,245,40]},"name":"Chappaquiddick 2018 Movies 720p BluRay x264 5.1  Sample ☻rDX☻","announce":["udp://exodus.desync.com:6969","udp://open.demonii.com:1337","udp://tracker.coppersurfer.tk:6969","udp://tracker.leechers-paradise.org:6969","udp://zer0day.ch:1337"],"urlList":[]}}